# xmcd
#
# Track frame offsets: 
#        150
#        16902
#        33384
#        52656
#        70533
#        86715
#        116020
#        133156
#        151404
#        169133
#        183612
#        207333
#        226829
#        249688
#        266835
#        285317
#        298213
#        319251
#        333711
#
# Disc length: 4675 seconds
#
# Revision: 0
# Processed by: cddbd v1.5.2PL0 Copyright (c) Steve Scherf et al.
# Submitted via: ExactAudioCopy v1.3
#
DISCID=1a124113
DTITLE=Malú - Dual
DYEAR=2012
DGENRE=Latin
TTITLE0=Sólo El Amor Nos Salvará (con Aleks Syntek)
TTITLE1=Vuelvo A Verte (con Pablo Alborán)
TTITLE2=Cuando Digo Tu Nombre (con Leonel García)
TTITLE3=Doy La Vida (con David Bisbal)
TTITLE4=Amigo (con Melendi)
TTITLE5=El Peligro (con Revólver)
TTITLE6=Linda (con Miguel Bosé)
TTITLE7=El Amor Es Una Cosa Simple (con Tziano Ferro)
TTITLE8=Que Nadie (con Manuel Carrasco)
TTITLE9=No (con Armando Manznero)
TTITLE10=Contigo Aprendí (con Alejandro Fernández)
TTITLE11=Sueño De Amor (Al Alba) (con Pepe de Lucía)
TTITLE12=Corazón Partío (con Alejandro Sanz)
TTITLE13=Enamorada (con David de María)
TTITLE14=No Te Pude Retener (con Vanesa Martín)
TTITLE15=Estúpido (con Lolita)
TTITLE16=Se Nos Rompío El Amor (con Rocío Jurado)
TTITLE17=Viviendo Deprisa (con Paco León)
TTITLE18=Y Qué Pequeña Que Soy (con Pastora Soler)
EXTD=
EXTT0=
EXTT1=
EXTT2=
EXTT3=
EXTT4=
EXTT5=
EXTT6=
EXTT7=
EXTT8=
EXTT9=
EXTT10=
EXTT11=
EXTT12=
EXTT13=
EXTT14=
EXTT15=
EXTT16=
EXTT17=
EXTT18=
PLAYORDER=
